# AST/ASF file generated using VICON BodyLanguage
# -----------------------------------------------
:version 1.10
:name VICON
:units
  mass 1.0
  length 0.45
  angle deg
:documentation
   .ast/.asf automatically generated from VICON data using
   VICON BodyBuilder and BodyLanguage model FoxedUp or BRILLIANT.MOD
:root
   order TX TY TZ RX RY RZ
   axis XYZ
   position 0 0 0  
   orientation 0 0 0 
:bonedata
  begin
     id 1 
     name lhipjoint
     direction 0.576517 -0.752066 0.319413 
     length 2.45433 
     axis 0 0 0  XYZ
  end
  begin
     id 2 
     name lfemur
     direction 0.34202 -0.939693 0  
     length 7.54459  
     axis 0 0 20  XYZ
    dof rx ry rz
    limits (-160.0 20.0)
           (-70.0 70.0)
           (-60.0 70.0)
  end
  begin
     id 3 
     name ltibia
     direction 0.34202 -0.939693 0   
     length 7.73986   
     axis 0 0 20   XYZ
    dof rx
    limits (-10.0 170.0)
  end
  begin
     id 4 
     name lfoot
     direction 0.090693 -0.249177 0.964202   
     length 2.28437   
     axis -90 7.62852e-016 20   XYZ
    dof rx rz
    limits (-45.0 90.0)
           (-70.0 20.0)
  end
  begin
     id 5 
     name ltoes
     direction 1.5356e-011 -4.21928e-011 1   
     length 1.14243   
     axis -90 7.62852e-016 20   XYZ
    dof rx
    limits (-90.0 20.0)
  end
  begin
     id 6 
     name rhipjoint
     direction -0.573937 -0.753736 0.320122   
     length 2.44889  
     axis 0 0 0  XYZ 
  end
  begin
     id 7 
     name rfemur
     direction -0.34202 -0.939693 0   
     length 7.50166   
     axis 0 0 -20   XYZ
    dof rx ry rz
    limits (-160.0 20.0)
           (-70.0 70.0)
           (-70.0 60.0)
  end
  begin
     id 8 
     name rtibia
     direction -0.34202 -0.939693 0   
     length 7.54266   
     axis 0 0 -20   XYZ
    dof rx
    limits (-10.0 170.0)
 end
 begin
     id 9 
     name rfoot
     direction -0.114017 -0.31326 0.942798   
     length 2.34212  
     axis -90 -7.62852e-016 -20   XYZ
    dof rx rz
    limits (-45.0 90.0)
           (-20.0 70.0)
  end
  begin
     id 10 
     name rtoes
     direction -1.53557e-011 -4.21867e-011 1   
     length 1.16246   
     axis -90 -7.62852e-016 -20   XYZ
    dof rx
    limits (-90.0 20.0)
  end
  begin
     id 11 
     name lowerback
     direction -0.0228371 0.999155 -0.034167   
     length 2.0537   
     axis 0 0 0   XYZ
    dof rx ry rz
    limits (-20.0 45.0)
           (-30.0 30.0)
           (-30.0 30.0)
  end
  begin
     id 12 
     name upperback
     direction 0.0198981 0.999794 0.00389455   
     length 2.05302   
     axis 0 0 0   XYZ
    dof rx ry rz
    limits (-20.0 45.0)
           (-30.0 30.0)
           (-30.0 30.0)
  end
  begin
     id 13 
     name thorax
     direction 0.0304566 0.99935 0.0192987   
     length 2.05315   
     axis 0 0 0   XYZ
    dof rx ry rz
    limits (-20.0 45.0)
           (-30.0 30.0)
           (-30.0 30.0)
  end
  begin
     id 14 
     name lowerneck
     direction -0.0196762 0.99417 0.106017   
     length 1.82056   
     axis 0 0 0   XYZ
    dof rx ry rz
    limits (-20.0 45.0)
           (-30.0 30.0)
           (-30.0 30.0)
  end
  begin
     id 15 
     name upperneck
     direction 0.00517787 0.9802 -0.197944   
     length 1.83835   
     axis 0 0 0   XYZ
    dof rx ry rz
    limits (-20.0 45.0)
           (-30.0 30.0)
           (-30.0 30.0)
  end
  begin
     id 16
     name head
     direction 0.00211419 0.996945 -0.078081  
     length 1.85629  
     axis 0 0 0   XYZ
    dof rx ry rz
    limits (-20.0 45.0)
           (-30.0 30.0)
           (-30.0 30.0)
  end
  begin
     id 17 
     name lclavicle
     direction 0.930001 0.365811 -0.0357824  
     length 3.81961  
     axis 0 0 0   XYZ
    dof ry rz
    limits (-20.0 10.0)
           (0.0 20.0)
  end
  begin
     id 18 
     name lhumerus
     direction 1 -4.48968e-011 -3.06644e-027   
     length 5.14507   
     axis 180 -30 -90   XYZ
    dof rx ry rz
    limits (-60.0 90.0)
           (-90.0 90.0)
           (-90.0 90.0)
  end
  begin
     id 19
     name lradius
     direction 1 -4.48965e-011 9.06925e-028   
     length 3.50646   
     axis 180 -30 -90   XYZ
    dof rx
    limits (-10.0 170.0)
  end
  begin
     id 20
     name lwrist
     direction 1 -4.48957e-011 1.03922e-027   
     length 1.75323   
     axis -2.56395e-016 90 90   XYZ
    dof ry
    limits (-180.0 0.0)
 end
  begin
     id 21 
     name lhand
     direction 1 -4.48967e-011 2.08017e-027   
     length 0.629969   
     axis -1.32723e-015 90 90   XYZ
    dof rx rz
    limits (-90.0 90.0)
           (-45.0 45.0)
  end
  begin
     id 22 
     name lfingers
     direction 1 -4.49089e-011 4.20095e-027   
     length 0.507897   
     axis -2.6545e-015 90 90   XYZ
    dof rx
    limits (0.0 90.0)
  end
  begin
     id 23
     name lthumb
     direction 0.707107 -6.35001e-011 0.707107   
     length 0.729241   
     axis -90 45 5.05613e-014   XYZ
    dof rx rz
    limits (-45.0 45.0)
           (-45.0 45.0)
  end
  begin
     id 24 
     name rclavicle
     direction -0.881882 0.464123 -0.0829113   
     length 3.47515  
     axis 0 0 0   XYZ 
    dof ry rz
    limits (-10.0 20.0)
           (-20.0 0.0)
  end
  begin
     id 25 
     name rhumerus
     direction -1 -4.48961e-011 -1.55672e-027  
     length 5.232   
     axis 180 30 90   XYZ
    dof rx ry rz
    limits (-90.0 60.0)
           (-90.0 90.0)
           (-90.0 90.0)
  end
  begin
     id 26 
     name rradius
     direction -1 -4.48963e-011 6.18178e-029   
     length 3.65641   
     axis 180 30 90   XYZ
    dof rx
    limits (-10.0 170.0)
  end
  begin
     id 27 
     name rwrist
     direction -1 -4.48982e-011 1.04136e-027   
     length 1.8282   
     axis -2.56395e-016 -90 -90   XYZ
    dof ry
    limits (-180.0 0.0)
  end
  begin
     id 28
     name rhand
     direction -1 -4.48929e-011 2.07378e-027   
     length 0.656807   
     axis -1.32723e-015 -90 -90   XYZ
    dof rx rz
    limits (-90.0 90.0)
           (-45.0 45.0)
  end
  begin
     id 29
     name rfingers
     direction -1 -4.489e-011 4.13816e-027   
     length 0.529535   
     axis -2.6545e-015 -90 -90   XYZ
    dof rx
    limits (0.0 90.0)
  end
  begin
     id 30
     name rthumb
     direction -0.707107 -6.34843e-011 0.707107   
     length 0.760309   
     axis -90 -45 -5.05613e-014   XYZ
    dof rx rz
    limits (-45.0 45.0)
           (-45.0 45.0)
  end
:hierarchy
  begin
    root lhipjoint rhipjoint lowerback
    lhipjoint lfemur
    lfemur ltibia
    ltibia lfoot
    lfoot ltoes
    rhipjoint rfemur
    rfemur rtibia
    rtibia rfoot
    rfoot rtoes
    lowerback upperback
    upperback thorax
    thorax lowerneck lclavicle rclavicle
    lowerneck upperneck
    upperneck head
    lclavicle lhumerus
    lhumerus lradius
    lradius lwrist
    lwrist lhand lthumb
    lhand lfingers
    rclavicle rhumerus
    rhumerus rradius
    rradius rwrist
    rwrist rhand rthumb
    rhand rfingers
  end

#!OML:ASF H:\ManfredETheater\Project 1\Capture day 1\Session 1\subject.ASF
:FULLY-SPECIFIED
:DEGREES
16
root 0.399048 15.6631 18.3611 -178.261 -4.11146 180.493
lowerback 19.283 -0.825763 2.42551
upperback 1.83915 -0.746735 3.50429
thorax -8.79557 -0.587342 2.66023
lowerneck -17.0951 -1.98412 -3.69736
upperneck 3.536 -2.08834 -0.418327
head 3.80766 -1.22638 0.283967
rclavicle -9.74045e-015 5.00937e-014
rhumerus -59.0319 -6.55917 -72.6507
rradius 67.4041
rwrist -13.499
rhand -27.803 7.67546
rfingers 7.12502
rthumb -1.19561 -22.3009
lclavicle -9.74045e-015 5.00937e-014
lhumerus -49.1188 -0.665094 94.3316
lradius 88.5595
lwrist 13.7926
lhand -25.345 -10.7682
lfingers 7.12502
lthumb 1.17832 19.2083
rfemur -46.9454 -8.97848 27.4052
rtibia 62.3194
rfoot -11.9124 -11.6538
rtoes -12.2858
lfemur -18.2406 -1.08701 -12.875
ltibia 99.0419
lfoot -4.47567 -7.0647
ltoes -3.83295
17
root 0.438134 15.6416 17.9134 -178.558 -4.50422 181.115
lowerback 19.4802 -0.749191 2.63395
upperback 1.96765 -0.61463 3.73344
thorax -8.76473 -0.543685 2.76165
lowerneck -17.0463 -2.07886 -3.73672
upperneck 3.45708 -2.21186 -0.416639
head 3.77788 -1.28781 0.281628
rclavicle -2.44505e-014 2.06736e-014
rhumerus -56.4618 -6.09205 -73.7328
rradius 67.3931
rwrist -12.9028
rhand -28.0216 7.51012
rfingers 7.12502
rthumb -1.4068 -22.465
lclavicle -2.44505e-014 2.06736e-014
lhumerus -49.0602 0.262728 93.3447
lradius 84.6783
lwrist 12.0737
lhand -26.0795 -10.9888
lfingers 7.12502
lthumb 0.468985 18.9904
rfemur -45.4531 -9.05894 28.0458
rtibia 63.6947
rfoot -14.2307 -12.7951
rtoes -13.4083
lfemur -22.718 -0.494217 -11.9507
ltibia 101.125
lfoot -6.23053 -6.33408
ltoes -4.05594
18
root 0.477003 15.6231 17.4671 -178.807 -5.12695 181.554
lowerback 19.5886 -0.743453 2.68155
upperback 2.05985 -0.605254 3.92891
thorax -8.72105 -0.54882 2.94831
lowerneck -16.9712 -2.16617 -3.76298
upperneck 3.44035 -2.32279 -0.430934
head 3.76294 -1.34253 0.273345
rclavicle 9.93923e-016 3.33958e-014
rhumerus -54.1515 -5.40959 -74.8225
rradius 67.9314
rwrist -12.0328
rhand -28.1333 7.52512
rfingers 7.12502
rthumb -1.51466 -22.4493
lclavicle 9.93923e-016 3.33958e-014
lhumerus -49.2425 0.65745 92.5645
lradius 81.3768
lwrist 10.3042
lhand -26.6671 -11.2334
lfingers 7.12502
lthumb -0.0985456 18.7463
rfemur -43.8608 -9.47569 28.5183
rtibia 64.7847
rfoot -16.5124 -13.8812
rtoes -14.5145
lfemur -27.3304 -0.202423 -11.5119
ltibia 102.519
lfoot -7.80985 -5.52736
ltoes -4.54005
19
root 0.515146 15.608 17.0204 -179.051 -5.92526 181.945
lowerback 19.6556 -0.797462 2.70771
upperback 2.11717 -0.674732 4.11337
thorax -8.6905 -0.588473 3.15593
lowerneck -16.8733 -2.25732 -3.76532
upperneck 3.4881 -2.43859 -0.451426
head 3.76431 -1.39832 0.258952
rclavicle 2.98177e-015 -2.94201e-014
rhumerus -52.1483 -4.53716 -75.9068
rradius 69.0348
rwrist -11.0526
rhand -28.1442 7.69218
rfingers 7.12502
rthumb -1.52516 -22.2821
lclavicle 2.98177e-015 -2.94201e-014
lhumerus -49.7316 0.449769 92.0456
lradius 78.8579
lwrist 8.74676
lhand -27.0533 -11.4925
lfingers 7.12502
lthumb -0.471558 18.4867
rfemur -42.1265 -10.1341 28.9437
rtibia 65.6047
rfoot -18.7195 -14.9281
rtoes -15.6611
lfemur -31.9252 -0.191202 -11.3781
ltibia 103.176
lfoot -9.19033 -4.74615
ltoes -5.00721
20
root 0.550836 15.596 16.5724 -179.307 -6.79409 182.402
lowerback 19.7017 -0.886978 2.84006
upperback 2.14198 -0.765473 4.29863
thorax -8.68416 -0.641095 3.31018
lowerneck -16.7657 -2.36108 -3.74079
upperneck 3.58605 -2.57394 -0.453225
head 3.77993 -1.46111 0.244412
rclavicle -1.78906e-015 3.10104e-014
rhumerus -50.4566 -3.49515 -76.9761
rradius 70.672
rwrist -10.1604
rhand -28.0416 7.9614
rfingers 7.12502
rthumb -1.42609 -22.0136
lclavicle -1.78906e-015 3.10104e-014
lhumerus -50.564 -0.359201 91.8135
lradius 77.2377
lwrist 7.61538
lhand -27.2012 -11.8354
lfingers 7.12502
lthumb -0.61439 18.1434
rfemur -40.2532 -10.9042 29.431
rtibia 66.1813
rfoot -20.8018 -15.9201
rtoes -16.9438
lfemur -36.3801 -0.368606 -11.3729
ltibia 103.083
lfoot -10.3969 -4.0654
ltoes -5.48252
21
root 0.582985 15.5879 16.1222 -179.58 -7.6464 182.953
lowerback 19.738 -0.9856 3.11242
upperback 2.14197 -0.836961 4.47564
thorax -8.70183 -0.689206 3.37123
lowerneck -16.6555 -2.48747 -3.69978
upperneck 3.70694 -2.74418 -0.402259
head 3.80321 -1.53692 0.240733
rclavicle -9.14409e-015 -4.92986e-014
rhumerus -49.0488 -2.31038 -78.0193
rradius 72.7582
rwrist -9.50975
rhand -27.8709 8.30306
rfingers 7.12502
rthumb -1.26122 -21.673
lclavicle -9.14409e-015 -4.92986e-014
lhumerus -51.7459 -1.69537 91.8663
lradius 76.5518
lwrist 7.03567
lhand -27.1174 -12.224
lfingers 7.12502
lthumb -0.533495 17.755
rfemur -38.2553 -11.6745 29.9961
rtibia 66.5481
rfoot -22.6799 -16.8518
rtoes -18.4815
lfemur -40.5803 -0.674537 -11.423
ltibia 102.229
lfoot -11.464 -3.54432
ltoes -5.91478
22
root 0.610895 15.5843 15.6691 -179.842 -8.4195 183.558
lowerback 19.7532 -1.06986 3.48982
upperback 2.11647 -0.865271 4.6263
thorax -8.73918 -0.719536 3.33218
lowerneck -16.5596 -2.64437 -3.65989
upperneck 3.83038 -2.95962 -0.271239
head 3.83133 -1.62994 0.258169
rclavicle -1.09332e-014 5.88403e-014
rhumerus -47.8881 -1.02231 -79.0081
rradius 75.2
rwrist -9.14236
rhand -27.6427 8.68531
rfingers 7.12502
rthumb -1.04079 -21.2919
lclavicle -1.09332e-014 5.88403e-014
lhumerus -53.2509 -3.41768 92.1713
lradius 76.7467
lwrist 6.99051
lhand -26.839 -12.5451
lfingers 7.12502
lthumb -0.264615 17.4344
rfemur -36.191 -12.3608 30.5948
rtibia 66.7455
rfoot -24.2795 -17.6959
rtoes -20.2729
lfemur -44.4673 -1.07116 -11.5272
ltibia 100.614
lfoot -12.4112 -3.21488
ltoes -6.31194
23
root 0.634478 15.5894 15.2127 -180.052 -9.05076 184.159
lowerback 19.7107 -1.11218 3.91391
upperback 2.07118 -0.828061 4.72976
thorax -8.77 -0.718565 3.19531
lowerneck -16.4781 -2.83932 -3.63926
upperneck 3.92698 -3.23061 -0.036394
head 3.85637 -1.74453 0.306241
rclavicle 2.78299e-014 1.19271e-014
rhumerus -46.9355 0.303025 -79.9132
rradius 77.8994
rwrist -8.98885
rhand -27.3581 9.07254
rfingers 7.12502
rthumb -0.765979 -20.9058
lclavicle 2.78299e-014 1.19271e-014
lhumerus -55.012 -5.36784 92.6655
lradius 77.6606
lwrist 7.39537
lhand -26.4138 -12.7884
lfingers 7.12502
lthumb 0.146124 17.1913
rfemur -34.1109 -12.8861 31.1671
rtibia 66.7984
rfoot -25.5226 -18.4077
rtoes -22.3421
lfemur -47.9821 -1.50935 -11.6989
ltibia 98.2207
lfoot -13.2195 -3.1143
ltoes -6.56601
24
root 0.654462 15.6112 14.7522 -180.179 -9.51681 184.702
lowerback 19.5818 -1.09627 4.3239
upperback 2.01383 -0.719135 4.77534
thorax -8.76848 -0.680459 2.98015
lowerneck -16.4203 -3.07228 -3.64867
upperneck 3.98519 -3.55606 0.302889
head 3.87714 -1.88083 0.386773
rclavicle -1.66979e-014 -2.94201e-014
rhumerus -46.161 1.58554 -80.7046
rradius 80.7627
rwrist -8.88436
rhand -27.025 9.51022
rfingers 7.12502
rthumb -0.444257 -20.4691
lclavicle -1.66979e-014 -2.94201e-014
lhumerus -56.9395 -7.39159 93.2791
lradius 79.0923
lwrist 8.10668
lhand -25.9351 -12.9025
lfingers 7.12502
lthumb 0.608414 17.0763
rfemur -32.0463 -13.2126 31.6561
rtibia 66.7295
rfoot -26.3356 -18.9321
rtoes -24.6687
lfemur -51.0348 -1.95034 -11.9411
ltibia 94.9985
lfoot -13.8734 -3.27292
ltoes -6.74479
25
root 0.671689 15.6569 14.2878 -180.219 -9.80847 185.139
lowerback 19.3589 -1.01201 4.66156
upperback 1.95331 -0.539399 4.7581
thorax -8.71858 -0.602959 2.71456
lowerneck -16.3741 -3.34022 -3.69762
upperneck 3.99618 -3.93034 0.735957
head 3.88996 -2.03726 0.498555
rclavicle -2.26615e-014 -4.53229e-014
rhumerus -45.5545 2.74384 -81.3659
rradius 83.7214
rwrist -8.66704
rhand -26.6424 9.989
rfingers 7.12502
rthumb -0.0747447 -19.9907
lclavicle -2.26615e-014 -4.53229e-014
lhumerus -58.9433 -9.35486 93.9377
lradius 80.8357
lwrist 8.97621
lhand -25.4286 -12.8946
lfingers 7.12502
lthumb 1.09766 17.0823
rfemur -30.0079 -13.3302 32.0055
rtibia 66.5719
rfoot -26.7282 -19.1691
rtoes -27.0062
lfemur -53.5143 -2.36835 -12.2508
ltibia 90.9409
lfoot -14.3952 -3.68702
ltoes -7.03236
26
root 0.686058 15.7218 13.8203 -180.182 -9.92825 185.452
lowerback 19.0585 -0.857294 4.89409
upperback 1.89646 -0.293197 4.6811
thorax -8.62004 -0.486823 2.42349
lowerneck -16.3394 -3.63627 -3.78778
upperneck 3.96989 -4.34221 1.24327
head 3.89845 -2.20979 0.636505
rclavicle 3.37934e-014 -5.32743e-014
rhumerus -45.1061 3.72504 -81.9013
rradius 86.7168
rwrist -8.26803
rhand -26.2171 10.5129
rfingers 7.12502
rthumb 0.336041 -19.4666
lclavicle 3.37934e-014 -5.32743e-014
lhumerus -60.9463 -11.1601 94.5745
lradius 82.7119
lwrist 9.86955
lhand -24.9228 -12.8003
lfingers 7.12502
lthumb 1.58613 17.1736
rfemur -28.0489 -13.2455 32.1852
rtibia 66.4132
rfoot -26.6232 -19.0984
rtoes -29.4216
lfemur -55.39 -2.74507 -12.6069
ltibia 86.0993
lfoot -14.7028 -4.37636
ltoes -7.29946
27
root 0.697347 15.7958 13.35 -180.113 -9.90192 185.637
lowerback 18.7132 -0.640981 5.0037
upperback 1.85905 0.00383619 4.55524
thorax -8.47262 -0.339621 2.13565
lowerneck -16.3212 -3.94929 -3.91445
upperneck 3.91913 -4.77485 1.7928
head 3.90713 -2.39213 0.791018
rclavicle -3.1408e-014 -1.37559e-013
rhumerus -44.8005 4.49808 -82.3263
rradius 89.7017
rwrist -7.70444
rhand -25.7672 11.0845
rfingers 7.12502
rthumb 0.770567 -18.8939
lclavicle -3.1408e-014 -1.37559e-013
lhumerus -62.8847 -12.7358 95.137
lradius 84.5939
lwrist 10.6918
lhand -24.4338 -12.6614
lfingers 7.12502
lthumb 2.05842 17.3084
rfemur -26.2041 -12.9994 32.1781
rtibia 66.3642
rfoot -26.0401 -18.6694
rtoes -31.6911
lfemur -56.6598 -3.08763 -12.9846
ltibia 80.5954
lfoot -14.7473 -5.29159
ltoes -7.80379
28
root 0.704965 15.8713 12.8773 -180.046 -9.72893 185.709
lowerback 18.3551 -0.3702 4.99329
upperback 1.84631 0.344773 4.39482
thorax -8.28855 -0.165599 1.86953
lowerneck -16.3096 -4.2641 -4.07588
upperneck 3.85776 -5.20564 2.35441
head 3.91797 -2.57468 0.954308
rclavicle 3.29983e-014 -1.51076e-014
rhumerus -44.6181 5.08065 -82.6677
rradius 92.6347
rwrist -7.0961
rhand -25.3137 11.6788
rfingers 7.12502
rthumb 1.20863 -18.2975
lclavicle 3.29983e-014 -1.51076e-014
lhumerus -64.7276 -14.0302 95.5917
lradius 86.4051
lwrist 11.3881
lhand -23.9793 -12.5203
lfingers 7.12502
lthumb 2.49735 17.4449
rfemur -24.5094 -12.6313 31.9886
rtibia 66.5265
rfoot -25.0177 -17.8364
rtoes -33.4429
lfemur -57.3438 -3.38941 -13.3451
ltibia 74.5679
lfoot -14.426 -6.34877
ltoes -8.43176
29
root 0.709182 15.9438 12.4014 -180.022 -9.44388 185.693
lowerback 18.0068 -0.0661649 4.88041
upperback 1.86281 0.706531 4.21752
thorax -8.07651 0.0225093 1.64208
lowerneck -16.3087 -4.56501 -4.25419
upperneck 3.81169 -5.61271 2.88321
head 3.93724 -2.74832 1.11118
rclavicle 2.90226e-014 -3.18055e-015
rhumerus -44.536 5.51399 -82.9557
rradius 95.4726
rwrist -6.55165
rhand -24.9045 12.2638
rfingers 7.12502
rthumb 1.60378 -17.7099
lclavicle 2.90226e-014 -3.18055e-015
lhumerus -66.4628 -15.0122 95.9212
lradius 88.1108
lwrist 11.9403
lhand -23.5834 -12.4124
lfingers 7.12502
lthumb 2.87967 17.5479
rfemur -22.9657 -12.2107 31.639
rtibia 66.961
rfoot -23.6433 -16.6131
rtoes -34.4512
lfemur -57.4662 -3.69217 -13.6354
ltibia 68.1804
lfoot -13.6983 -7.38011
ltoes -9.22336
